<?xml version="1.0" encoding="UTF-8"?>
<svg version="1.1" xmlns="http://www.w3.org/2000/svg" width="500" height="500">
<path d="M0 0 C165 0 330 0 500 0 C500 165 500 330 500 500 C335 500 170 500 0 500 C0 335 0 170 0 0 Z " fill="#000000" transform="translate(0,0)"/>
<path d="M0 0 C0.85941193 0.00420456 1.71882385 0.00840912 2.60427856 0.01274109 C5.52532484 0.02967436 8.44621333 0.05550649 11.3671875 0.08203125 C12.43497437 0.0899469 13.50276123 0.09786255 14.60290527 0.10601807 C21.60831456 0.15887514 28.61284643 0.24016734 35.61767578 0.34448242 C38.05900979 0.37819342 40.50043049 0.40607248 42.94189453 0.4284668 C46.5188859 0.46193433 50.09517731 0.5141227 53.671875 0.5703125 C54.75935028 0.57670242 55.84682556 0.58309235 56.96725464 0.5896759 C62.48548723 0.69717252 66.6304801 0.91458491 71.3671875 4.08203125 C73.50800545 6.6882444 73.36678417 8.10421461 73.3046875 11.51953125 C72.15782521 15.87760797 70.87842182 17.29177037 67.3671875 20.08203125 C64.5714689 20.60640956 62.34262075 20.87052034 59.5546875 20.89453125 C58.86181641 20.91966797 58.16894531 20.94480469 57.45507812 20.97070312 C55.75971628 21.02916388 54.06339463 21.05856172 52.3671875 21.08203125 C52.3671875 22.40203125 52.3671875 23.72203125 52.3671875 25.08203125 C53.03250488 25.08614014 53.69782227 25.09024902 54.38330078 25.09448242 C57.42047727 25.12753545 60.45567887 25.19819159 63.4921875 25.26953125 C64.53890625 25.27533203 65.585625 25.28113281 66.6640625 25.28710938 C75.3989886 25.53588892 75.3989886 25.53588892 79.06640625 28.3828125 C81.89858013 31.70544773 82.20945725 32.98271851 81.90234375 37.1484375 C80.99940355 40.41088567 78.95828941 42.04616546 76.3671875 44.08203125 C73.45181299 45.5397185 70.94441175 45.15348392 67.68945312 45.1003418 C66.26615454 45.0806625 64.84285536 45.0610265 63.41955566 45.04142761 C62.66310257 45.02919851 61.90664948 45.01696941 61.12727356 45.00436974 C57.11368338 44.94363355 53.09981152 44.91300484 49.0859375 44.87695312 C43.98141354 44.82916798 38.87743511 44.77274478 33.7734375 44.68432617 C29.64732552 44.61363517 25.52183804 44.57300296 21.39518738 44.55170631 C19.82914623 44.53819923 18.26315646 44.51391506 16.69746399 44.47821617 C7.2782195 44.26953969 -0.07873441 44.729654 -7.6328125 51.08203125 C-10.2466692 53.81746269 -11.52394513 55.44902066 -11.77734375 59.25 C-11.45373732 64.47143355 -10.09726901 68.05577098 -6.6328125 72.08203125 C-1.3266793 76.08870326 2.19775334 77.21360846 8.77197266 77.11621094 C9.41810013 77.1083255 10.0642276 77.10044006 10.72993469 77.09231567 C12.13441039 77.07511907 13.53886255 77.05591056 14.9432869 77.034935 C17.95413221 76.99271886 20.96503115 76.96934244 23.97606468 76.94490433 C29.57416215 76.89938983 35.17191643 76.84731133 40.76953125 76.75976562 C74.87138308 76.24232584 74.87138308 76.24232584 88.3671875 82.08203125 C89.18856201 82.40413574 90.00993652 82.72624023 90.85620117 83.05810547 C103.22367 88.13317035 111.89589259 99.16545223 117.1796875 111.01953125 C124.37129349 129.75555739 123.04334347 149.51203429 115.23828125 167.71484375 C108.04940467 182.09259691 95.15014161 191.38264457 80.3036499 196.47444153 C72.12825303 199.03957634 64.29952834 199.42917872 55.7578125 199.48828125 C54.47283875 199.4996814 53.18786499 199.51108154 51.86395264 199.52282715 C49.16107629 199.54368873 46.45831632 199.55548133 43.75537109 199.5625 C40.29939033 199.57353266 36.84496056 199.62177948 33.38946915 199.67844391 C30.07477984 199.72467585 26.76030744 199.72858752 23.4453125 199.73828125 C22.20879944 199.76297485 20.97228638 199.78766846 19.69830322 199.81311035 C11.39354548 199.76983296 11.39354548 199.76983296 8.46838379 197.80957031 C6.30171284 195.33949278 5.39565165 193.23700276 4.8046875 190.01953125 C5.49698111 186.40422017 6.82309783 184.70094709 9.3671875 182.08203125 C12.5389255 180.49616225 16.00232572 180.7033668 19.4921875 180.51953125 C20.24628906 180.47634766 21.00039062 180.43316406 21.77734375 180.38867188 C23.64040638 180.28254805 25.50377274 180.18178124 27.3671875 180.08203125 C27.6971875 178.76203125 28.0271875 177.44203125 28.3671875 176.08203125 C27.04328003 176.0680127 27.04328003 176.0680127 25.69262695 176.05371094 C22.40262078 176.00957011 19.11389676 175.94790449 15.82446289 175.87451172 C14.40368558 175.84637111 12.98275372 175.82512217 11.56176758 175.81103516 C9.51303391 175.78950731 7.4661445 175.74281611 5.41796875 175.69140625 C4.18731689 175.67045898 2.95666504 175.64951172 1.6887207 175.62792969 C-2.18859501 174.99068765 -3.85864462 173.81055352 -6.6328125 171.08203125 C-8.20216844 167.94331937 -7.98482353 165.54347303 -7.6328125 162.08203125 C-5.1953125 159.20703125 -5.1953125 159.20703125 -2.6328125 157.08203125 C-2.3028125 156.75203125 -1.9728125 156.42203125 -1.6328125 156.08203125 C1.22255818 155.93324212 4.05643615 155.84637932 6.9140625 155.80078125 C8.22647415 155.77398285 8.22647415 155.77398285 9.56539917 155.74664307 C11.44242733 155.70843078 13.31949548 155.67214434 15.19659424 155.63757324 C19.0726717 155.56386046 22.94828112 155.47314872 26.82400513 155.38299561 C33.73146593 155.22236554 40.63829072 155.07604722 47.546875 154.97265625 C49.36201758 154.92729301 51.17712834 154.88061792 52.9921875 154.83203125 C53.76272461 154.83009766 54.53326172 154.82816406 55.32714844 154.82617188 C62.22106336 154.59354547 66.88807255 151.37044505 71.8046875 146.83203125 C73.99335418 142.9799779 74.69541939 139.50534676 74.3671875 135.08203125 C71.54804221 129.33531201 67.46985399 125.73360849 61.5546875 123.39453125 C48.80282344 119.63152938 33.77378425 120.85188594 20.5546875 120.58203125 C14.6662673 120.46106342 8.77866139 120.32792106 2.89151001 120.1550293 C1.18489336 120.10567757 -0.52184445 120.06037533 -2.22866821 120.01879883 C-4.77309361 119.9525351 -7.31585048 119.86381665 -9.859375 119.76953125 C-10.61583817 119.75313599 -11.37230133 119.73674072 -12.15168762 119.71984863 C-23.84067839 119.21553653 -34.34245184 112.44204908 -42.5234375 104.42578125 C-57.05276586 88.28208307 -59.64598589 71.04205585 -58.6328125 50.08203125 C-57.26522992 35.27794985 -50.3201243 22.80116713 -39.5234375 12.63671875 C-28.23642889 3.35525299 -14.39412054 -0.13061072 0 0 Z " fill="#FDFDFD" transform="translate(218.6328125,131.91796875)"/>
<path d="M0 0 C3.78171013 2.03630545 7.09528802 4.08475871 9 8 C9.73940087 12.77415625 9.45664981 16.10300929 7.25 20.4375 C4.65674316 23.3909314 2.74512429 24.72712602 -1.1484375 25.3359375 C-6.57714448 25.43117797 -9.80409377 24.78654952 -14 21 C-16.39757256 17.07669945 -16.99258024 12.48782007 -16 8 C-11.95596843 1.35350016 -7.8394458 -0.66435981 0 0 Z " fill="#F3F3F3" transform="translate(392,349)"/>
<path d="M0 0 C3.78171013 2.03630545 7.09528802 4.08475871 9 8 C9.73940087 12.77415625 9.45664981 16.10300929 7.25 20.4375 C4.65674316 23.3909314 2.74512429 24.72712602 -1.1484375 25.3359375 C-6.57714448 25.43117797 -9.80409377 24.78654952 -14 21 C-16.39757256 17.07669945 -16.99258024 12.48782007 -16 8 C-11.95596843 1.35350016 -7.8394458 -0.66435981 0 0 Z " fill="#F3F3F3" transform="translate(255,349)"/>
<path d="M0 0 C2.64 0 5.28 0 8 0 C8 8.25 8 16.5 8 25 C6.02 25 4.04 25 2 25 C1.67 21.04 1.34 17.08 1 13 C-0.65 16.96 -2.3 20.92 -4 25 C-5.65 25 -7.3 25 -9 25 C-10.32 21.37 -11.64 17.74 -13 14 C-13.33 17.63 -13.66 21.26 -14 25 C-15.98 25 -17.96 25 -20 25 C-20 17.08 -20 9.16 -20 1 C-17.36 1 -14.72 1 -12 1 C-11.65066406 1.92683594 -11.30132812 2.85367187 -10.94140625 3.80859375 C-10.48636719 5.00613281 -10.03132812 6.20367187 -9.5625 7.4375 C-9.11003906 8.63246094 -8.65757812 9.82742188 -8.19140625 11.05859375 C-7.2855174 13.84445723 -7.2855174 13.84445723 -6 15 C-4.02 10.05 -2.04 5.1 0 0 Z " fill="#F3F3F3" transform="translate(194,349)"/>
<path d="M0 0 C1.03769531 -0.02578125 2.07539063 -0.0515625 3.14453125 -0.078125 C7.53693492 0.39551031 10.10871943 2.17121943 13.1875 5.25 C13.69171994 8.28704568 13.64217228 11.20802594 13.1875 14.25 C11.31129387 16.75160818 9.94858697 17.86945652 7.1875 19.25 C4.73056092 19.45353342 2.33507347 19.57340647 -0.125 19.625 C-2.09919922 19.69847656 -2.09919922 19.69847656 -4.11328125 19.7734375 C-8.67580725 19.12784248 -10.06874158 17.88404816 -12.8125 14.25 C-13.70947604 11.46409796 -13.54326056 9.07598809 -12.8125 6.25 C-8.78160595 1.26442052 -6.2451601 0.09240681 0 0 Z " fill="#F8F8F8" transform="translate(191.8125,287.75)"/>
<path d="M0 0 C3.1419665 0.42421721 4.92273139 0.69512139 7.43359375 2.54296875 C9.99780959 6.08762006 10.71490546 8.10374087 10.55859375 12.48046875 C8.79218203 15.28236321 7.52809553 16.99571786 4.55859375 18.48046875 C2.10371952 18.65768452 -0.29702289 18.75783696 -2.75390625 18.79296875 C-4.07003906 18.83035156 -5.38617188 18.86773437 -6.7421875 18.90625 C-10.94363457 18.42266211 -12.50517112 17.44975718 -15.44140625 14.48046875 C-17.01076219 11.34175687 -16.79341728 8.94191053 -16.44140625 5.48046875 C-11.78767705 -0.60381858 -7.13954223 -0.35970347 0 0 Z " fill="#FAFAFA" transform="translate(312.44140625,133.51953125)"/>
<path d="M0 0 C2.31 0 4.62 0 7 0 C8.92409498 2.24838066 10.105419 3.94219177 11.4375 6.5 C11.78748047 7.12003906 12.13746094 7.74007813 12.49804688 8.37890625 C13.35569369 9.9062225 14.18111194 11.45155713 15 13 C15.33 9.04 15.66 5.08 16 1 C17.98 1 19.96 1 22 1 C22 8.92 22 16.84 22 25 C20.02 25 18.04 25 16 25 C14.03061502 22.63914706 12.61827367 20.63100599 11.125 18 C10.7228125 17.33226562 10.320625 16.66453125 9.90625 15.9765625 C8.91789927 14.32931129 7.95628934 12.66606855 7 11 C6.67 15.62 6.34 20.24 6 25 C4.02 25 2.04 25 0 25 C0 16.75 0 8.5 0 0 Z " fill="#F1F1F1" transform="translate(404,349)"/>
<path d="M0 0 C2.31 0 4.62 0 7 0 C16 21.1352459 16 21.1352459 16 25 C13.69 25 11.38 25 9 25 C9 23.68 9 22.36 9 21 C4.05 21.495 4.05 21.495 -1 22 C-1.33 22.99 -1.66 23.98 -2 25 C-4.31 25 -6.62 25 -9 25 C-7.87685891 21.77018378 -6.75115766 18.54126553 -5.625 15.3125 C-5.14933594 13.94448242 -5.14933594 13.94448242 -4.6640625 12.54882812 C-4.3546875 11.66259766 -4.0453125 10.77636719 -3.7265625 9.86328125 C-3.44377441 9.05157471 -3.16098633 8.23986816 -2.86962891 7.40356445 C-1.96803802 4.91166039 -0.99728271 2.45499672 0 0 Z " fill="#EFEFEF" transform="translate(145,349)"/>
<path d="M0 0 C3.10039543 1.75494081 5.48825667 3.48825667 8 6 C8 6.99 8 7.98 8 9 C5.69 9 3.38 9 1 9 C1 8.34 1 7.68 1 7 C-1.97 7 -4.94 7 -8 7 C-8.05395478 8.62463842 -8.09277195 10.24978541 -8.125 11.875 C-8.15980469 13.23238281 -8.15980469 13.23238281 -8.1953125 14.6171875 C-8.24324836 17.18806994 -8.24324836 17.18806994 -6 19 C-3.5 19.33333333 -3.5 19.33333333 -1 19 C-0.34 18.34 0.32 17.68 1 17 C4.625 16.875 4.625 16.875 8 17 C7.10368306 20.01488424 6.32087126 21.71802222 3.9375 23.8125 C-0.1376766 25.45991182 -3.66840841 25.82361248 -8 25 C-11.14588913 23.32041513 -13.26554725 21.00152647 -15.375 18.125 C-16.75017467 13.44940611 -16.55896687 10.07652879 -14.3125 5.75 C-10.05820349 0.69083658 -6.64730633 -0.81633587 0 0 Z " fill="#EFEFEF" transform="translate(334,349)"/>
<path d="M0 0 C3.22143168 1.76030716 5.54641102 3.80122912 6.875 7.3125 C6.91625 7.869375 6.9575 8.42625 7 9 C4.69 9 2.38 9 0 9 C0 8.34 0 7.68 0 7 C-1.27875 6.938125 -2.5575 6.87625 -3.875 6.8125 C-4.95394531 6.76029297 -4.95394531 6.76029297 -6.0546875 6.70703125 C-7.01761719 6.85205078 -7.01761719 6.85205078 -8 7 C-10.37222995 9.89579382 -10.37222995 9.89579382 -9.75 13.5625 C-9.3141556 17.04592612 -9.3141556 17.04592612 -7 19 C-3.17435335 18.81242938 -3.17435335 18.81242938 0 17 C2.33297433 16.95907063 4.66705225 16.95758277 7 17 C6.10368306 20.01488424 5.32087126 21.71802222 2.9375 23.8125 C-2.07772696 25.83993218 -6.83710245 25.84635121 -11.875 23.875 C-15.6295611 20.56215197 -16.85570103 17.37084018 -17.375 12.4375 C-16.81069711 7.26472349 -15.22080055 5.05045629 -11.3125 1.6875 C-7.31882235 -0.34701503 -4.39141335 -1.02146195 0 0 Z " fill="#F2F2F2" transform="translate(229,349)"/>
<path d="M0 0 C2.875 1.1875 2.875 1.1875 5 3 C5.8125 5.6875 5.8125 5.6875 6 8 C3.69 8 1.38 8 -1 8 C-1.33 7.34 -1.66 6.68 -2 6 C-2.99 6 -3.98 6 -5 6 C-4.34198878 9.11449899 -4.34198878 9.11449899 -1.96875 10.09765625 C-1.1540625 10.41605469 -0.339375 10.73445313 0.5 11.0625 C4.89753695 12.79507389 4.89753695 12.79507389 6 15 C6.37252607 18.42723983 6.36781772 20.36467848 4.625 23.375 C0.5742497 25.88260733 -3.36478556 25.77766887 -8 25 C-10.625 23.1875 -10.625 23.1875 -12 21 C-12 20.01 -12 19.02 -12 18 C-8.16774573 17.91087781 -4.73437848 18.12132271 -1 19 C-1 18.34 -1 17.68 -1 17 C-1.62648438 16.73445313 -2.25296875 16.46890625 -2.8984375 16.1953125 C-3.71570313 15.84210938 -4.53296875 15.48890625 -5.375 15.125 C-6.18710938 14.77695312 -6.99921875 14.42890625 -7.8359375 14.0703125 C-10 13 -10 13 -12 11 C-12.4375 7.625 -12.4375 7.625 -12 4 C-8.43754928 -0.21016903 -5.35404223 -0.66925528 0 0 Z " fill="#F0F0F0" transform="translate(128,349)"/>
<path d="M0 0 C4.62 0 9.24 0 14 0 C14 1.32 14 2.64 14 4 C11.36 4 8.72 4 6 4 C6 5.65 6 7.3 6 9 C8.64 9 11.28 9 14 9 C14 10.65 14 12.3 14 14 C11.36 14 8.72 14 6 14 C6 15.65 6 17.3 6 19 C8.97 19 11.94 19 15 19 C15 20.65 15 22.3 15 24 C10.05 24 5.1 24 0 24 C0 16.08 0 8.16 0 0 Z " fill="#F4F4F4" transform="translate(301,350)"/>
<path d="M0 0 C5.94 0 11.88 0 18 0 C18 1.32 18 2.64 18 4 C16.02 4 14.04 4 12 4 C12 10.6 12 17.2 12 24 C10.02 24 8.04 24 6 24 C6 17.4 6 10.8 6 4 C4.02 4 2.04 4 0 4 C0 2.68 0 1.36 0 0 Z " fill="#FDFDFD" transform="translate(345,350)"/>
<path d="M0 0 C1.98 0 3.96 0 6 0 C6 6.6 6 13.2 6 20 C8.64 20 11.28 20 14 20 C14 21.65 14 23.3 14 25 C9.38 25 4.76 25 0 25 C0 16.75 0 8.5 0 0 Z " fill="#F3F3F3" transform="translate(284,349)"/>
<path d="M0 0 C1.98 0 3.96 0 6 0 C6 6.6 6 13.2 6 20 C8.64 20 11.28 20 14 20 C14 21.65 14 23.3 14 25 C9.38 25 4.76 25 0 25 C0 16.75 0 8.5 0 0 Z " fill="#F3F3F3" transform="translate(267,349)"/>
<path d="M0 0 C2.31 0 4.62 0 7 0 C7 8.25 7 16.5 7 25 C4.69 25 2.38 25 0 25 C0 16.75 0 8.5 0 0 Z " fill="#D9D9D9" transform="translate(366,349)"/>
<path d="M0 0 C2.31 0 4.62 0 7 0 C7 8.25 7 16.5 7 25 C4.69 25 2.38 25 0 25 C0 16.75 0 8.5 0 0 Z " fill="#D9D9D9" transform="translate(163,349)"/>
<path d="M0 0 C1.9375 1.125 1.9375 1.125 3 3 C3.57977821 6.80997107 3.27372261 8.53365777 1.3125 11.875 C-1 14 -1 14 -3.5 14.625 C-6 14 -6 14 -8.3125 11.875 C-10.27372261 8.53365777 -10.57977821 6.80997107 -10 3 C-7.72054654 -1.02256493 -4.21158603 -0.45124136 0 0 Z " fill="#0B0B0B" transform="translate(392,355)"/>
<path d="M0 0 C1.9375 1.125 1.9375 1.125 3 3 C3.57977821 6.80997107 3.27372261 8.53365777 1.3125 11.875 C-1 14 -1 14 -3.5 14.625 C-6 14 -6 14 -8.3125 11.875 C-10.27372261 8.53365777 -10.57977821 6.80997107 -10 3 C-7.72054654 -1.02256493 -4.21158603 -0.45124136 0 0 Z " fill="#0B0B0B" transform="translate(255,355)"/>
<path d="M0 0 C2.31 0 4.62 0 7 0 C9 2 9 2 9.265625 4.53125 C9.26046875 5.5109375 9.2553125 6.490625 9.25 7.5 C9.25515625 8.4796875 9.2603125 9.459375 9.265625 10.46875 C9 13 9 13 7 15 C4.69 15 2.38 15 0 15 C0 10.05 0 5.1 0 0 Z " fill="#C6C6C6" transform="translate(95,387)"/>
<path d="M0 0 C2.9375 0.1875 2.9375 0.1875 3.9375 1.1875 C4.0364294 3.35230797 4.067211 5.52043785 4.0625 7.6875 C4.06507813 8.8734375 4.06765625 10.059375 4.0703125 11.28125 C3.9375 14.1875 3.9375 14.1875 2.9375 15.1875 C0.60452567 15.22842937 -1.72955225 15.22991723 -4.0625 15.1875 C-5.36339831 12.58570337 -5.23090078 10.5905812 -5.25 7.6875 C-5.26417969 6.7078125 -5.27835938 5.728125 -5.29296875 4.71875 C-4.93726503 0.812038 -3.83674974 0.23490305 0 0 Z " fill="#DEDEDE" transform="translate(247.0625,386.8125)"/>
<path d="M0 0 C1.98 0 3.96 0 6 0 C8 2 8 2 8.265625 4.53125 C8.26046875 5.5109375 8.2553125 6.490625 8.25 7.5 C8.25515625 8.4796875 8.2603125 9.459375 8.265625 10.46875 C8 13 8 13 6 15 C4.02 15 2.04 15 0 15 C0 10.05 0 5.1 0 0 Z " fill="#C9C9C9" transform="translate(260,387)"/>
<path d="M0 0 C2.31 0 4.62 0 7 0 C8 1 8 1 8.0625 3.14453125 C8.02101625 4.91536888 7.9793512 6.68620227 7.9375 8.45703125 C7.99551496 10.81751485 8.32781044 12.74711466 9 15 C8.01 14.67 7.02 14.34 6 14 C5.5 12 5.5 12 5 10 C4.01 9.67 3.02 9.34 2 9 C2 10.98 2 12.96 2 15 C1.34 15 0.68 15 0 15 C0 10.05 0 5.1 0 0 Z " fill="#CFCFCF" transform="translate(439,387)"/>
<path d="M0 0 C1.98 0 3.96 0 6 0 C8 2 8 2 8.1953125 5.0390625 C8.17210937 6.22242188 8.14890625 7.40578125 8.125 8.625 C8.10695312 9.81351562 8.08890625 11.00203125 8.0703125 12.2265625 C8.04710937 13.14179688 8.02390625 14.05703125 8 15 C7.34 15 6.68 15 6 15 C5.67 13.02 5.34 11.04 5 9 C3.68 9 2.36 9 1 9 C1 10.98 1 12.96 1 15 C0.67 15 0.34 15 0 15 C0 10.05 0 5.1 0 0 Z " fill="#D1D1D1" transform="translate(226,387)"/>
<path d="M0 0 C2.31 0 4.62 0 7 0 C8 1 8 1 8.09765625 2.84765625 C8.04882812 5.92382812 8.04882812 5.92382812 8 9 C6.02 9 4.04 9 2 9 C2 10.98 2 12.96 2 15 C1.34 15 0.68 15 0 15 C0 10.05 0 5.1 0 0 Z " fill="#CECECE" transform="translate(382,387)"/>
<path d="M0 0 C2.31 0 4.62 0 7 0 C8 1 8 1 8.09765625 2.84765625 C8.04882812 5.92382812 8.04882812 5.92382812 8 9 C6.02 9 4.04 9 2 9 C2 10.98 2 12.96 2 15 C1.34 15 0.68 15 0 15 C0 10.05 0 5.1 0 0 Z " fill="#CECECE" transform="translate(209,387)"/>
<path d="M0 0 C0.99 0 1.98 0 3 0 C3.508783 1.55966218 4.00663469 3.12289241 4.5 4.6875 C4.7784375 5.55761719 5.056875 6.42773438 5.34375 7.32421875 C5.99850805 9.99391677 6.11831495 12.26396684 6 15 C5.34 15 4.68 15 4 15 C4 13.68 4 12.36 4 11 C2.35 11 0.7 11 -1 11 C-1 12.32 -1 13.64 -1 15 C-1.66 15 -2.32 15 -3 15 C-2.44854729 9.76119922 -1.57077907 5.02649303 0 0 Z " fill="#D0D0D0" transform="translate(168,387)"/>
<path d="M0 0 C0.94875 0.04125 1.8975 0.0825 2.875 0.125 C2.875 0.785 2.875 1.445 2.875 2.125 C0.895 2.125 -1.085 2.125 -3.125 2.125 C-3.125 5.755 -3.125 9.385 -3.125 13.125 C-1.805 13.125 -0.485 13.125 0.875 13.125 C0.875 11.805 0.875 10.485 0.875 9.125 C0.215 9.125 -0.445 9.125 -1.125 9.125 C-1.125 8.465 -1.125 7.805 -1.125 7.125 C0.195 7.125 1.515 7.125 2.875 7.125 C2.875 9.765 2.875 12.405 2.875 15.125 C0.565 15.125 -1.745 15.125 -4.125 15.125 C-5.42589831 12.52320337 -5.29340078 10.5280812 -5.3125 7.625 C-5.32667969 6.6453125 -5.34085937 5.665625 -5.35546875 4.65625 C-4.99546768 0.70233993 -3.88392906 0.15535716 0 0 Z " fill="#CBCBCB" transform="translate(128.125,386.875)"/>
<path d="M0 0 C1.65 0 3.3 0 5 0 C5 3.63 5 7.26 5 11 C3.68 11.33 2.36 11.66 1 12 C0 11 0 11 -0.09765625 8.49609375 C-0.08605469 7.48675781 -0.07445312 6.47742188 -0.0625 5.4375 C-0.05347656 4.42558594 -0.04445312 3.41367187 -0.03515625 2.37109375 C-0.02355469 1.58863281 -0.01195312 0.80617188 0 0 Z " fill="#070707" transform="translate(244,389)"/>
<path d="M0 0 C2.475 0.495 2.475 0.495 5 1 C5 4.3 5 7.6 5 11 C3.35 11.33 1.7 11.66 0 12 C0 8.04 0 4.08 0 0 Z " fill="#191919" transform="translate(97,389)"/>
<path d="M0 0 C2.97 0 5.94 0 9 0 C9 0.66 9 1.32 9 2 C8.01 2 7.02 2 6 2 C6 6.29 6 10.58 6 15 C5.01 15 4.02 15 3 15 C3 10.71 3 6.42 3 2 C2.01 2 1.02 2 0 2 C0 1.34 0 0.68 0 0 Z " fill="#A0A0A0" transform="translate(307,387)"/>
<path d="M0 0 C0.66 0 1.32 0 2 0 C2 1.98 2 3.96 2 6 C2.66 6 3.32 6 4 6 C4.66 4.02 5.32 2.04 6 0 C6.66 0 7.32 0 8 0 C7.649375 0.70125 7.29875 1.4025 6.9375 2.125 C5.46998254 6.62538688 6.79985204 10.54230756 8 15 C7.34 15 6.68 15 6 15 C5.54625 14.030625 5.0925 13.06125 4.625 12.0625 C3.34213779 8.92920418 3.34213779 8.92920418 1 8 C1 10.31 1 12.62 1 15 C0.67 15 0.34 15 0 15 C0 10.05 0 5.1 0 0 Z " fill="#D0D0D0" transform="translate(183,387)"/>
<path d="M0 0 C2.31 0 4.62 0 7 0 C7 0.66 7 1.32 7 2 C5.35 2 3.7 2 2 2 C2 3.65 2 5.3 2 7 C3.32 7.33 4.64 7.66 6 8 C4.68 8 3.36 8 2 8 C2 9.65 2 11.3 2 13 C3.65 13 5.3 13 7 13 C7 13.66 7 14.32 7 15 C4.69 15 2.38 15 0 15 C0 10.05 0 5.1 0 0 Z " fill="#D4D4D4" transform="translate(424,387)"/>
<path d="M0 0 C1.134375 0.020625 2.26875 0.04125 3.4375 0.0625 C3.4375 0.7225 3.4375 1.3825 3.4375 2.0625 C1.4575 2.0625 -0.5225 2.0625 -2.5625 2.0625 C-2.5625 3.3825 -2.5625 4.7025 -2.5625 6.0625 C-1.758125 6.206875 -0.95375 6.35125 -0.125 6.5 C2.4375 7.0625 2.4375 7.0625 3.4375 8.0625 C3.5625 11.0625 3.5625 11.0625 3.4375 14.0625 C2.4375 15.0625 2.4375 15.0625 -0.625 15.125 C-1.594375 15.104375 -2.56375 15.08375 -3.5625 15.0625 C-2.923125 14.835625 -2.28375 14.60875 -1.625 14.375 C0.70943661 13.20999104 0.70943661 13.20999104 1.1875 10.4375 C1.27 9.65375 1.3525 8.87 1.4375 8.0625 C0.633125 8.083125 -0.17125 8.10375 -1 8.125 C-3.5625 8.0625 -3.5625 8.0625 -4.5625 7.0625 C-4.6875 4.0625 -4.6875 4.0625 -4.5625 1.0625 C-3.5625 0.0625 -3.5625 0.0625 0 0 Z " fill="#B8B8B8" transform="translate(353.5625,386.9375)"/>
<path d="M0 0 C1.134375 0.020625 2.26875 0.04125 3.4375 0.0625 C3.4375 0.7225 3.4375 1.3825 3.4375 2.0625 C1.4575 2.0625 -0.5225 2.0625 -2.5625 2.0625 C-2.5625 3.3825 -2.5625 4.7025 -2.5625 6.0625 C-1.758125 6.206875 -0.95375 6.35125 -0.125 6.5 C2.4375 7.0625 2.4375 7.0625 3.4375 8.0625 C3.5625 11.0625 3.5625 11.0625 3.4375 14.0625 C2.4375 15.0625 2.4375 15.0625 -0.625 15.125 C-1.594375 15.104375 -2.56375 15.08375 -3.5625 15.0625 C-2.923125 14.835625 -2.28375 14.60875 -1.625 14.375 C0.70943661 13.20999104 0.70943661 13.20999104 1.1875 10.4375 C1.27 9.65375 1.3525 8.87 1.4375 8.0625 C0.633125 8.083125 -0.17125 8.10375 -1 8.125 C-3.5625 8.0625 -3.5625 8.0625 -4.5625 7.0625 C-4.6875 4.0625 -4.6875 4.0625 -4.5625 1.0625 C-3.5625 0.0625 -3.5625 0.0625 0 0 Z " fill="#B8B8B8" transform="translate(327.5625,386.9375)"/>
<path d="M0 0 C1.32 0 2.64 0 4 0 C4 3.63 4 7.26 4 11 C2.68 11 1.36 11 0 11 C0 7.37 0 3.74 0 0 Z " fill="#040404" transform="translate(262,389)"/>
<path d="M0 0 C2.97 0 5.94 0 9 0 C9 0.66 9 1.32 9 2 C8.01 2 7.02 2 6 2 C6 6.29 6 10.58 6 15 C5.34 15 4.68 15 4 15 C4 10.71 4 6.42 4 2 C2.68 2 1.36 2 0 2 C0 1.34 0 0.68 0 0 Z " fill="#C2C2C2" transform="translate(149,387)"/>
<path d="M0 0 C1.65 0 3.3 0 5 0 C5 1.65 5 3.3 5 5 C3.35 5.33 1.7 5.66 0 6 C0 4.02 0 2.04 0 0 Z " fill="#242424" transform="translate(441,389)"/>
<path d="M0 0 C1.65 0 3.3 0 5 0 C5 1.65 5 3.3 5 5 C3.35 5.33 1.7 5.66 0 6 C0 4.02 0 2.04 0 0 Z " fill="#1C1C1C" transform="translate(384,389)"/>
<path d="M0 0 C1.65 0 3.3 0 5 0 C5 1.65 5 3.3 5 5 C3.35 5.33 1.7 5.66 0 6 C0 4.02 0 2.04 0 0 Z " fill="#1C1C1C" transform="translate(211,389)"/>
<path d="M0 0 C1.42944945 2.35438733 2.08661261 3.48032433 1.625 6.25 C1.41875 6.8275 1.2125 7.405 1 8 C-0.32 8 -1.64 8 -3 8 C-2.74438677 5.6568787 -2.40729228 3.32156597 -2 1 C-1.34 0.67 -0.68 0.34 0 0 Z " fill="#747474" transform="translate(171,389)"/>
<path d="M0 0 C2.62386487 3.06117568 3 3.73173127 3 8 C1.35 8 -0.3 8 -2 8 C-1.125 2.25 -1.125 2.25 0 0 Z " fill="#181818" transform="translate(148,357)"/>
<path d="M0 0 C1.66611905 -0.042721 3.33382885 -0.04063832 5 0 C6 1 6 1 6.125 4 C6 7 6 7 5 8 C3.00041636 8.04080783 0.99954746 8.04254356 -1 8 C-0.0409375 7.6596875 -0.0409375 7.6596875 0.9375 7.3125 C3.27193661 6.14749104 3.27193661 6.14749104 3.75 3.375 C3.8325 2.59125 3.915 1.8075 4 1 C2.68 0.67 1.36 0.34 0 0 Z " fill="#E0E0E0" transform="translate(351,394)"/>
<path d="M0 0 C1.66611905 -0.042721 3.33382885 -0.04063832 5 0 C6 1 6 1 6.125 4 C6 7 6 7 5 8 C3.00041636 8.04080783 0.99954746 8.04254356 -1 8 C-0.0409375 7.6596875 -0.0409375 7.6596875 0.9375 7.3125 C3.27193661 6.14749104 3.27193661 6.14749104 3.75 3.375 C3.8325 2.59125 3.915 1.8075 4 1 C2.68 0.67 1.36 0.34 0 0 Z " fill="#E0E0E0" transform="translate(325,394)"/>
<path d="M0 0 C-0.33 3.63 -0.66 7.26 -1 11 C-1.33 11 -1.66 11 -2 11 C-2 7.7 -2 4.4 -2 1 C-3.32 0.67 -4.64 0.34 -6 0 C-3 -1 -3 -1 0 0 Z " fill="#B5B5B5" transform="translate(251,388)"/>
<path d="M0 0 C1.32 0 2.64 0 4 0 C4 1.65 4 3.3 4 5 C2.68 5 1.36 5 0 5 C0 3.35 0 1.7 0 0 Z " fill="#040404" transform="translate(228,389)"/>
</svg>
